<?xml version="1.0" encoding="UTF-8"?>
<svg xmlns="http://www.w3.org/2000/svg" id="Layer_1" data-name="Layer 1" viewBox="0 0 64 64" width="512" height="512"><path d="M56,1H8A1,1,0,0,0,7,2V62a1,1,0,0,0,1,1H56a1,1,0,0,0,1-1V2A1,1,0,0,0,56,1ZM55,61H9V3H55Z"/><path d="M12,59H52a1,1,0,0,0,1-1V6a1,1,0,0,0-1-1H12a1,1,0,0,0-1,1V58A1,1,0,0,0,12,59Zm30-8v6H38V54a1,1,0,0,0-1-1H27a1,1,0,0,0-1,1v3H22V51ZM27.117,49a6.961,6.961,0,0,1,9.766,0ZM36,57H28V55h8Zm8,0V50a1,1,0,0,0-1-1H39.5l-.3-.4a9,9,0,0,0-14.4,0l-.3.4H21a1,1,0,0,0-1,1v7H13V33H25.08a6.991,6.991,0,0,0,13.84,0H51V57ZM36.9,33a5,5,0,0,1-9.8,0Zm-9.8-2a5,5,0,0,1,9.8,0ZM22,13V7h4v3a1,1,0,0,0,1,1H37a1,1,0,0,0,1-1V7h4v6Zm14.883,2a6.961,6.961,0,0,1-9.766,0ZM28,7h8V9H28ZM20,7v7a1,1,0,0,0,1,1h3.5l.3.4a9,9,0,0,0,14.4,0l.3-.4H43a1,1,0,0,0,1-1V7h7V31H38.92a6.991,6.991,0,0,0-13.84,0H13V7Z"/></svg>
